<svg xmlns="http://www.w3.org/2000/svg" xmlns:xlink="http://www.w3.org/1999/xlink" width="500" zoomAndPan="magnify" viewBox="0 0 375 374.999991" height="500" preserveAspectRatio="xMidYMid meet" version="1.0"><defs><g/><clipPath id="9f531f0c1b"><rect x="0" width="228" y="0" height="72"/></clipPath><clipPath id="aad18349e1"><path d="M 60 138.027344 L 112.980469 138.027344 L 112.980469 237 L 60 237 Z M 60 138.027344 " clip-rule="nonzero"/></clipPath><clipPath id="0be214da5c"><path d="M 28.230469 157 L 65 157 L 65 208 L 28.230469 208 Z M 28.230469 157 " clip-rule="nonzero"/></clipPath></defs><g transform="matrix(1, 0, 0, 1, 120, 151)"><g clip-path="url(#9f531f0c1b)"><g fill="#000000" fill-opacity="1"><g transform="translate(1.088207, 57.095789)"><g><path d="M 9.71875 0 L 1.578125 0 L 15.84375 -20.96875 L 1.9375 -41.125 L 10.15625 -41.125 L 20.640625 -25.640625 L 20.6875 -25.640625 L 31.203125 -41.125 L 39.390625 -41.125 L 25.484375 -20.96875 L 39.796875 0 L 31.453125 0 L 20.609375 -16.046875 Z M 9.71875 0 "/></g></g></g><g fill="#000000" fill-opacity="1"><g transform="translate(37.664521, 57.095789)"><g><path d="M 44.4375 -21.578125 C 44.4375 -21.222656 44.425781 -20.847656 44.40625 -20.453125 C 44.394531 -20.066406 44.363281 -19.5 44.3125 -18.75 L 10.203125 -18.75 C 10.492188 -16.007812 11.296875 -13.628906 12.609375 -11.609375 C 13.929688 -9.597656 15.585938 -8.046875 17.578125 -6.953125 C 19.566406 -5.867188 21.691406 -5.328125 23.953125 -5.328125 C 26.722656 -5.328125 29.085938 -5.921875 31.046875 -7.109375 C 33.003906 -8.304688 34.441406 -10.0625 35.359375 -12.375 L 43.140625 -12.375 C 42.546875 -10.5 41.664062 -8.738281 40.5 -7.09375 C 39.332031 -5.457031 37.921875 -4.023438 36.265625 -2.796875 C 34.617188 -1.578125 32.765625 -0.617188 30.703125 0.078125 C 28.648438 0.773438 26.453125 1.125 24.109375 1.125 C 21.128906 1.125 18.367188 0.566406 15.828125 -0.546875 C 13.285156 -1.660156 11.066406 -3.210938 9.171875 -5.203125 C 7.273438 -7.191406 5.800781 -9.492188 4.75 -12.109375 C 3.707031 -14.734375 3.1875 -17.550781 3.1875 -20.5625 C 3.1875 -23.570312 3.707031 -26.382812 4.75 -29 C 5.800781 -31.625 7.273438 -33.929688 9.171875 -35.921875 C 11.066406 -37.910156 13.285156 -39.46875 15.828125 -40.59375 C 18.367188 -41.726562 21.128906 -42.296875 24.109375 -42.296875 C 27.066406 -42.296875 29.785156 -41.742188 32.265625 -40.640625 C 34.753906 -39.535156 36.90625 -38.015625 38.71875 -36.078125 C 40.539062 -34.148438 41.945312 -31.941406 42.9375 -29.453125 C 43.9375 -26.960938 44.4375 -24.335938 44.4375 -21.578125 Z M 10.53125 -24.875 L 37.34375 -24.875 C 37.226562 -26.332031 36.800781 -27.71875 36.0625 -29.03125 C 35.320312 -30.34375 34.347656 -31.503906 33.140625 -32.515625 C 31.929688 -33.523438 30.539062 -34.316406 28.96875 -34.890625 C 27.394531 -35.472656 25.734375 -35.765625 23.984375 -35.765625 C 21.941406 -35.765625 19.992188 -35.347656 18.140625 -34.515625 C 16.285156 -33.679688 14.6875 -32.457031 13.34375 -30.84375 C 12 -29.226562 11.0625 -27.238281 10.53125 -24.875 Z M 10.53125 -24.875 "/></g></g></g><g fill="#000000" fill-opacity="1"><g transform="translate(79.845058, 57.095789)"><g><path d="M 13.59375 0 L 6.65625 0 L 6.65625 -41.125 L 13.3125 -41.125 L 13.3125 -33.1875 C 14.082031 -34.957031 15.210938 -36.523438 16.703125 -37.890625 C 18.203125 -39.265625 19.957031 -40.34375 21.96875 -41.125 C 23.988281 -41.90625 26.15625 -42.296875 28.46875 -42.296875 C 33.925781 -42.296875 38.066406 -40.609375 40.890625 -37.234375 C 43.710938 -33.859375 45.125 -28.878906 45.125 -22.296875 L 45.125 0 L 38.1875 0 L 38.1875 -22.171875 C 38.1875 -26.898438 37.164062 -30.351562 35.125 -32.53125 C 33.082031 -34.71875 30.269531 -35.8125 26.6875 -35.8125 C 24.96875 -35.8125 23.320312 -35.488281 21.75 -34.84375 C 20.175781 -34.195312 18.773438 -33.253906 17.546875 -32.015625 C 16.328125 -30.773438 15.363281 -29.28125 14.65625 -27.53125 C 13.945312 -25.789062 13.59375 -23.816406 13.59375 -21.609375 Z M 13.59375 0 "/></g></g></g><g fill="#000000" fill-opacity="1"><g transform="translate(126.339635, 57.095789)"><g><path d="M 30.125 0 L 22.546875 0 C 20.984375 0 19.4375 -0.195312 17.90625 -0.59375 C 16.375 -1 14.984375 -1.738281 13.734375 -2.8125 C 12.484375 -3.894531 11.476562 -5.4375 10.71875 -7.4375 C 9.96875 -9.4375 9.59375 -12.035156 9.59375 -15.234375 L 9.59375 -35.046875 L 0.4375 -35.046875 L 0.4375 -41.125 L 9.59375 -41.125 L 9.59375 -53.34375 L 16.53125 -53.390625 L 16.53125 -41.125 L 30.125 -41.125 L 30.125 -35.046875 L 16.53125 -35.046875 L 16.53125 -14.921875 C 16.53125 -13.015625 16.738281 -11.460938 17.15625 -10.265625 C 17.570312 -9.066406 18.132812 -8.148438 18.84375 -7.515625 C 19.5625 -6.890625 20.359375 -6.460938 21.234375 -6.234375 C 22.109375 -6.003906 23 -5.890625 23.90625 -5.890625 L 30.125 -5.890625 Z M 30.125 0 "/></g></g></g><g fill="#000000" fill-opacity="1"><g transform="translate(153.965321, 57.095789)"><g><path d="M 13.625 0 L 6.65625 0 L 6.65625 -41.125 L 13.34375 -41.125 L 13.34375 -31.9375 C 14.363281 -34.78125 15.957031 -37.019531 18.125 -38.65625 C 20.289062 -40.300781 22.863281 -41.125 25.84375 -41.125 L 29.84375 -41.125 L 29.84375 -35.046875 L 26.203125 -35.046875 C 23.816406 -35.046875 21.664062 -34.425781 19.75 -33.1875 C 17.84375 -31.945312 16.34375 -30.15625 15.25 -27.8125 C 14.164062 -25.476562 13.625 -22.660156 13.625 -19.359375 Z M 13.625 0 "/></g></g></g><g fill="#000000" fill-opacity="1"><g transform="translate(180.462099, 57.095789)"><g><path d="M 24.5625 1.171875 C 21.519531 1.171875 18.703125 0.613281 16.109375 -0.5 C 13.515625 -1.613281 11.25 -3.164062 9.3125 -5.15625 C 7.375 -7.144531 5.867188 -9.457031 4.796875 -12.09375 C 3.722656 -14.726562 3.1875 -17.550781 3.1875 -20.5625 C 3.1875 -23.570312 3.722656 -26.382812 4.796875 -29 C 5.867188 -31.625 7.363281 -33.929688 9.28125 -35.921875 C 11.207031 -37.910156 13.46875 -39.46875 16.0625 -40.59375 C 18.65625 -41.726562 21.488281 -42.296875 24.5625 -42.296875 C 27.625 -42.296875 30.457031 -41.738281 33.0625 -40.625 C 35.664062 -39.507812 37.9375 -37.957031 39.875 -35.96875 C 41.8125 -33.976562 43.316406 -31.664062 44.390625 -29.03125 C 45.460938 -26.394531 46 -23.570312 46 -20.5625 C 46 -17.550781 45.460938 -14.726562 44.390625 -12.09375 C 43.316406 -9.457031 41.8125 -7.144531 39.875 -5.15625 C 37.9375 -3.164062 35.664062 -1.613281 33.0625 -0.5 C 30.457031 0.613281 27.625 1.171875 24.5625 1.171875 Z M 24.640625 -5.359375 C 26.679688 -5.359375 28.570312 -5.734375 30.3125 -6.484375 C 32.0625 -7.242188 33.59375 -8.304688 34.90625 -9.671875 C 36.226562 -11.046875 37.253906 -12.660156 37.984375 -14.515625 C 38.710938 -16.367188 39.078125 -18.382812 39.078125 -20.5625 C 39.078125 -22.738281 38.710938 -24.75 37.984375 -26.59375 C 37.253906 -28.4375 36.226562 -30.039062 34.90625 -31.40625 C 33.59375 -32.78125 32.0625 -33.847656 30.3125 -34.609375 C 28.570312 -35.378906 26.679688 -35.765625 24.640625 -35.765625 C 22.597656 -35.765625 20.695312 -35.378906 18.9375 -34.609375 C 17.175781 -33.847656 15.632812 -32.78125 14.3125 -31.40625 C 13 -30.039062 11.972656 -28.4375 11.234375 -26.59375 C 10.492188 -24.75 10.125 -22.738281 10.125 -20.5625 C 10.125 -18.382812 10.492188 -16.367188 11.234375 -14.515625 C 11.972656 -12.660156 13 -11.046875 14.3125 -9.671875 C 15.632812 -8.304688 17.175781 -7.242188 18.9375 -6.484375 C 20.695312 -5.734375 22.597656 -5.359375 24.640625 -5.359375 Z M 24.640625 -5.359375 "/></g></g></g></g></g><g clip-path="url(#aad18349e1)"><path fill="#1b17ff" d="M 96.300781 138.027344 C 94.167969 138.027344 93.246094 139.375 92.480469 140.746094 L 60.726562 197.054688 L 81.003906 234.25 C 81.707031 235.515625 82.796875 236.96875 84.988281 236.96875 L 99.242188 236.96875 C 100.097656 236.96875 100.785156 236.644531 101.136719 236.042969 C 101.511719 235.429688 101.503906 234.628906 101.105469 233.835938 L 80.988281 197.097656 C 80.96875 197.070312 80.96875 197.03125 80.988281 197.003906 L 112.585938 141.140625 C 112.980469 140.351562 112.988281 139.550781 112.613281 138.941406 C 112.25 138.351562 111.574219 138.027344 110.714844 138.027344 Z M 96.300781 138.027344 " fill-opacity="1" fill-rule="nonzero"/></g><g clip-path="url(#0be214da5c)"><path fill="#1b17ff" d="M 36.339844 157.550781 C 35.480469 157.550781 34.804688 157.875 34.445312 158.460938 C 34.066406 159.074219 34.078125 159.875 34.476562 160.667969 L 44.1875 177.328125 C 44.203125 177.359375 44.203125 177.390625 44.1875 177.425781 L 28.984375 204.199219 C 28.585938 204.988281 28.582031 205.792969 28.957031 206.402344 C 29.324219 206.992188 29.996094 207.316406 30.855469 207.316406 L 45.160156 207.316406 C 47.296875 207.316406 48.257812 205.910156 48.988281 204.59375 L 64.449219 177.375 C 64.386719 177.277344 54.597656 160.273438 54.597656 160.273438 C 53.890625 159.007812 52.796875 157.550781 50.609375 157.550781 Z M 36.339844 157.550781 " fill-opacity="1" fill-rule="nonzero"/></g></svg>