<svg xmlns="http://www.w3.org/2000/svg" xmlns:xlink="http://www.w3.org/1999/xlink" width="500" zoomAndPan="magnify" viewBox="0 0 375 374.999991" height="500" preserveAspectRatio="xMidYMid meet" version="1.0"><defs><clipPath id="ff6279e9c0"><path d="M 168 93.613281 L 268 93.613281 L 268 281.113281 L 168 281.113281 Z M 168 93.613281 " clip-rule="nonzero"/></clipPath></defs><g clip-path="url(#ff6279e9c0)"><path fill="#1b17ff" d="M 235.933594 93.613281 C 231.886719 93.613281 230.132812 96.167969 228.679688 98.773438 L 168.425781 205.632812 L 206.902344 276.21875 C 208.238281 278.625 210.308594 281.382812 214.464844 281.382812 L 241.515625 281.382812 C 243.140625 281.382812 244.449219 280.769531 245.109375 279.625 C 245.824219 278.464844 245.808594 276.9375 245.050781 275.4375 L 206.875 205.71875 C 206.839844 205.660156 206.839844 205.59375 206.875 205.539062 L 266.835938 99.523438 C 267.585938 98.027344 267.605469 96.5 266.894531 95.347656 C 266.199219 94.226562 264.917969 93.613281 263.285156 93.613281 Z M 235.933594 93.613281 " fill-opacity="1" fill-rule="nonzero"/></g><path fill="#1b17ff" d="M 122.140625 130.664062 C 120.511719 130.664062 119.230469 131.28125 118.542969 132.394531 C 117.828125 133.554688 117.851562 135.078125 118.601562 136.582031 L 137.03125 168.195312 C 137.0625 168.257812 137.0625 168.316406 137.03125 168.378906 L 108.179688 219.195312 C 107.429688 220.691406 107.417969 222.214844 108.132812 223.375 C 108.824219 224.488281 110.097656 225.105469 111.730469 225.105469 L 138.882812 225.105469 C 142.933594 225.105469 144.761719 222.441406 146.144531 219.941406 L 175.484375 168.289062 C 175.367188 168.105469 156.789062 135.832031 156.789062 135.832031 C 155.445312 133.429688 153.375 130.664062 149.21875 130.664062 Z M 122.140625 130.664062 " fill-opacity="1" fill-rule="nonzero"/></svg>